<?xml version="1.0" encoding="utf-8"?>
<!-- Generator: Adobe Illustrator 21.0.0, SVG Export Plug-In . SVG Version: 6.00 Build 0)  -->
<svg version="1.1" xmlns="http://www.w3.org/2000/svg" xmlns:xlink="http://www.w3.org/1999/xlink" x="0px" y="0px"
	 viewBox="0 0 800 800" style="enable-background:new 0 0 800 800;" xml:space="preserve">
<style type="text/css">
	.st0{stroke:#231F20;stroke-miterlimit:10;}
	.st1{display:none;}
	.st2{display:inline;fill:none;stroke:#2AFF32;stroke-width:2;stroke-linecap:round;stroke-linejoin:round;stroke-miterlimit:10;}
	
		.st3{display:inline;fill:#FF002A;stroke:#FF002A;stroke-width:2;stroke-linecap:round;stroke-linejoin:round;stroke-miterlimit:10;}
	.st4{font-family:'Salome';}
	.st5{font-size:340.0711px;}
	.st6{font-size:347.0014px;}
	.st7{fill:#13FF00;}
	.st8{fill:#0DFF00;}
	.st9{fill:#FFFFFF;}
	.st10{display:inline;fill:none;stroke:#0DFF00;stroke-width:13;stroke-linecap:round;stroke-miterlimit:10;}
	.st11{display:inline;}
	.st12{fill:#00FC06;}
</style>
<g id="Layer_2">
	<rect class="st0" width="800" height="800"/>
</g>
<g id="Layer_1" class="st1">
	<line class="st2" x1="0" y1="0" x2="800" y2="800"/>
</g>
<g id="Layer_8" class="st1">
</g>
<g id="Layer_7" class="st1">
	<text transform="matrix(1 0 0 1 226.3271 445.2016)" class="st3 st4 st5">D</text>
	<text transform="matrix(1 0 0 1 431.1674 633.709)" class="st3 st4 st6">S</text>
</g>
<g id="Layer_11">
</g>
<g id="Layer_10">
	<g>
		<g>
			<rect x="106.9" y="98.6" class="st7" width="609.7" height="602.2"/>
		</g>
		<g>
			<path class="st8" d="M723.6,707.8H99.9V91.6h623.7V707.8z M113.9,693.8h595.7V105.6H113.9V693.8z"/>
		</g>
	</g>
	<g>
		<g>
			<polyline points="523.1,98.6 106.9,98.6 106.9,514.8 187.4,594.3 300.4,700.8 716.6,700.8 716.6,284.6 			"/>
		</g>
		<g>
			<polygon class="st8" points="723.1,707.3 297.8,707.3 182.8,598.9 100.4,517.5 100.4,92.1 529.6,92.1 529.6,105.1 113.4,105.1 
				113.4,512.1 191.9,589.6 303,694.3 710.1,694.3 710.1,278.1 723.1,278.1 			"/>
		</g>
	</g>
	<g>
		<g>
			<path class="st8" d="M716.6,98.6v602.2H106.9V98.6H716.6 M740.6,74.6h-24H106.9h-24v24v602.2v24h24h609.7h24v-24V98.6V74.6
				L740.6,74.6z"/>
		</g>
	</g>
</g>
<g id="Layer_5">
	<g>
		<path class="st8" d="M259.5,425.6c-35.4,0-65.3,1-65.3,1v-3.4c17.3,0,25.5-16,25.5-42.5V222.3c0-24.1-8.2-30.3-25.5-30.3v-3.4
			c0,0,29.9,1,65.3,1c17.3,0,41.5-1,62.6-1c79.2,0,135.3,42.5,135.3,113.2c0,79.2-51.7,124.8-128.5,124.8
			C297.9,426.7,279.2,425.6,259.5,425.6z M371.7,311.4c0-77.5-20.4-118.7-62.6-118.7c-3.4,0-7.5,0.7-9.9,1.4V393
			c0,24.1,8.5,30.3,22.4,30.3C348.3,423.3,371.7,399.5,371.7,311.4z"/>
	</g>
</g>
<g id="Layer_6">
	<g>
		<path class="st9" d="M244.7,419c-35.4,0-65.3,1-65.3,1v-3.4c17.3,0,25.5-16,25.5-42.5V215.6c0-24.1-8.2-30.3-25.5-30.3v-3.4
			c0,0,29.9,1,65.3,1c17.3,0,41.5-1,62.6-1c79.2,0,135.3,42.5,135.3,113.2c0,79.2-51.7,124.8-128.5,124.8
			C283.1,420,264.4,419,244.7,419z M356.9,304.7c0-77.5-20.4-118.7-62.6-118.7c-3.4,0-7.5,0.7-9.9,1.4v198.9
			c0,24.1,8.5,30.3,22.4,30.3C333.4,416.6,356.9,392.8,356.9,304.7z"/>
	</g>
</g>
<g id="Layer_9" class="st1">
	<line class="st10" x1="684" y1="129" x2="126" y2="687"/>
	<g class="st11">
		<path class="st8" d="M399,18.5c51.6,0,101.6,10.1,148.7,30c45.5,19.2,86.3,46.8,121.4,81.9c35.1,35.1,62.6,75.9,81.9,121.4
			c19.9,47.1,30,97.1,30,148.7s-10.1,101.6-30,148.7c-19.2,45.5-46.8,86.3-81.9,121.4c-35.1,35.1-75.9,62.6-121.4,81.9
			c-47.1,19.9-97.1,30-148.7,30s-101.6-10.1-148.7-30c-45.5-19.2-86.3-46.8-121.4-81.9C93.8,635.5,66.3,594.7,47,549.2
			c-19.9-47.1-30-97.1-30-148.7s10.1-101.6,30-148.7c19.2-45.5,46.8-86.3,81.9-121.4c35.1-35.1,75.9-62.6,121.4-81.9
			C297.4,28.6,347.4,18.5,399,18.5 M399-0.5C177.5-0.5-2,179-2,400.5s179.5,401,401,401s401-179.5,401-401S620.5-0.5,399-0.5
			L399-0.5z"/>
	</g>
</g>
<g id="Layer_3">
	<g>
		<path class="st12" d="M596.7,448.4h-3.5c-7.1-39.1-36-76.9-73.3-76.9c-18.7,0-32.1,10.9-32.1,30.3c0,58.5,129.7,56.4,129.7,142.8
			c0,52.9-48.3,83.5-100.5,83.5c-38.1,0-42.3-10.6-89.5-10.6l-3.5-88.5h3.5c11.6,55.7,43.4,95.5,85.7,95.5
			c29.3,0,42.3-16.2,42.3-35.3c0-55.7-131.8-62.7-131.8-145.2c0-46.2,34.9-76.1,97.6-76.1c24.7,0,49,7.4,78.6,7.4L596.7,448.4z"/>
	</g>
	<g>
		<path class="st9" d="M582.6,443.1h-3.5c-7.1-39.1-36-76.9-73.3-76.9c-18.7,0-32.1,10.9-32.1,30.3c0,58.5,129.7,56.4,129.7,142.8
			c0,52.9-48.3,83.5-100.5,83.5c-38.1,0-42.3-10.6-89.5-10.6l-3.5-88.5h3.5c11.6,55.7,43.4,95.5,85.7,95.5
			c29.3,0,42.3-16.2,42.3-35.3c0-55.7-131.8-62.7-131.8-145.2c0-46.2,34.9-76.1,97.6-76.1c24.7,0,49,7.4,78.6,7.4L582.6,443.1z"/>
	</g>
</g>
</svg>
