<?xml version="1.0" encoding="utf-8"?>
<!-- Generator: Adobe Illustrator 21.0.0, SVG Export Plug-In . SVG Version: 6.00 Build 0)  -->
<svg version="1.1" id="Layer_3" xmlns="http://www.w3.org/2000/svg" xmlns:xlink="http://www.w3.org/1999/xlink" x="0px" y="0px"
	 viewBox="0 0 800 800" style="enable-background:new 0 0 800 800;" xml:space="preserve">
<path d="M704.2,11.8H96.8c-46.5,0-84.5,38-84.5,84.5v607.4c0,46.5,38,84.5,84.5,84.5h607.4c46.5,0,84.5-38,84.5-84.5V96.3
	C788.7,49.8,750.7,11.8,704.2,11.8z M608.7,527.6c4.7,4.7,4.7,12.3,0,17l-64.1,64.1c-4.7,4.7-12.3,4.7-17,0L400,481.1L272.8,608.2
	c-4.7,4.7-12.3,4.7-17,0l-64.1-64.1c-4.7-4.7-4.7-12.3,0-17L318.9,400L191.3,272.4c-4.7-4.7-4.7-12.3,0-17l64.1-64.1
	c4.7-4.7,12.3-4.7,17,0L400,318.9l128.1-128.1c4.7-4.7,12.3-4.7,17,0l64.1,64.1c4.7,4.7,4.7,12.3,0,17L481.1,400L608.7,527.6z"/>
</svg>
