<?xml version="1.0" encoding="utf-8"?>
<!-- Generator: Adobe Illustrator 21.0.0, SVG Export Plug-In . SVG Version: 6.00 Build 0)  -->
<svg version="1.1" id="Layer_2" xmlns="http://www.w3.org/2000/svg" xmlns:xlink="http://www.w3.org/1999/xlink" x="0px" y="0px"
	 viewBox="0 0 800 800" style="enable-background:new 0 0 800 800;" xml:space="preserve">
<g>
	<path d="M410.5,771c-51.2,0-100.9-10-147.7-29.8c-45.2-19.1-85.8-46.5-120.6-81.3C107.3,625,80,584.4,60.8,539.2
		C41,492.4,31,442.7,31,391.5c0-51.2,10-100.9,29.8-147.7c19.1-45.2,46.5-85.8,81.3-120.6S217.6,61,262.8,41.8
		C309.6,22,359.3,12,410.5,12c51.2,0,100.9,10,147.7,29.8C603.4,61,644,88.3,678.8,123.2c34.8,34.8,62.2,75.4,81.3,120.6
		C780,290.6,790,340.3,790,391.5c0,51.2-10,100.9-29.8,147.7c-19.1,45.2-46.5,85.8-81.3,120.6c-34.8,34.8-75.4,62.2-120.6,81.3
		C511.4,761,461.7,771,410.5,771z M410.5,88c-81.1,0-157.3,31.6-214.6,88.9C138.6,234.2,107,310.4,107,391.5
		c0,81.1,31.6,157.3,88.9,214.6c57.3,57.3,133.5,88.9,214.6,88.9c81.1,0,157.3-31.6,214.6-88.9c57.3-57.3,88.9-133.5,88.9-214.6
		c0-81.1-31.6-157.3-88.9-214.6C567.8,119.6,491.6,88,410.5,88z"/>
</g>
<g>
	<path d="M534.8,565.8c-12.8,0-25.6-4.9-35.4-14.6L250.8,302.6c-19.5-19.5-19.5-51.2,0-70.7c19.5-19.5,51.2-19.5,70.7,0l248.6,248.6
		c19.5,19.5,19.5,51.2,0,70.7C560.4,560.9,547.6,565.8,534.8,565.8z"/>
</g>
<g>
	<path d="M286.2,565.8c-12.8,0-25.6-4.9-35.4-14.6c-19.5-19.5-19.5-51.2,0-70.7l248.6-248.6c19.5-19.5,51.2-19.5,70.7,0
		c19.5,19.5,19.5,51.2,0,70.7L321.6,551.2C311.8,560.9,299,565.8,286.2,565.8z"/>
</g>
</svg>
