<?xml version="1.0" encoding="utf-8"?>
<!-- Generator: Adobe Illustrator 21.0.0, SVG Export Plug-In . SVG Version: 6.00 Build 0)  -->
<svg version="1.1" id="Layer_2" xmlns="http://www.w3.org/2000/svg" xmlns:xlink="http://www.w3.org/1999/xlink" x="0px" y="0px"
	 viewBox="0 0 800 800" style="enable-background:new 0 0 800 800;" xml:space="preserve">
<g>
	<path d="M580,265.5H214c-27.3,0-49.5,0-49.5-49.5s22.2-49.5,49.5-49.5h366c27.3,0,49.5,0,49.5,49.5S607.3,265.5,580,265.5z"/>
</g>
<g>
	<path d="M580,432.5H214c-27.3,0-49.5,0-49.5-49.5s22.2-49.5,49.5-49.5h366c27.3,0,49.5,0,49.5,49.5S607.3,432.5,580,432.5z"/>
</g>
<g>
	<path d="M580,599.5H214c-27.3,0-49.5,0-49.5-49.5s22.2-49.5,49.5-49.5h366c27.3,0,49.5,0,49.5,49.5S607.3,599.5,580,599.5z"/>
</g>
</svg>
