<?xml version="1.0" encoding="utf-8"?>
<!-- Generator: Adobe Illustrator 22.1.0, SVG Export Plug-In . SVG Version: 6.00 Build 0)  -->
<svg version="1.1" id="Layer_1" xmlns="http://www.w3.org/2000/svg" xmlns:xlink="http://www.w3.org/1999/xlink" x="0px" y="0px"
	 viewBox="0 0 512 512" style="enable-background:new 0 0 512 512;" xml:space="preserve">
<g>
	<path d="M433.5,166.6c-21,93.3-85.9,142.5-188.1,142.5h-34l-23.7,150.1h-28.5l-1.5,9.7c-1,6.4,4,12.1,10.4,12.1h72.8
		c8.6,0,15.9-6.2,17.3-14.8l0.7-3.7l13.7-86.9l0.9-4.8c1.3-8.5,8.7-14.8,17.3-14.8h10.8c70.5,0,125.7-28.7,141.9-111.5
		C449.6,213.2,447.3,186.5,433.5,166.6L433.5,166.6z"/>
	<path d="M390,64.9C369.2,41.2,331.5,31,283.3,31H143.5c-9.8,0-18.3,7.1-19.8,16.9L65.4,417.2c-1.2,7.3,4.5,13.9,11.9,13.9h86.4
		l21.7-137.6l-0.7,4.3c1.5-9.8,9.8-16.9,19.7-16.9h41c80.6,0,143.7-32.7,162.2-127.4c0.5-2.8,1-5.5,1.4-8.2
		C414.4,110.3,409,86.4,390,64.9z"/>
</g>
</svg>
